                                    <svg width="30" height="30" viewBox="0 0 30 30" fill="none" xmlns="http://www.w3.org/2000/svg">
                                        <g clip-path="url(#clip0_9843_578)">
                                            <path d="M23.8477 4.33594C23.2984 4.33594 22.7659 4.40871 22.2588 4.54436C20.9302 2.83084 18.8755 1.81641 16.6992 1.81641C15.0095 1.81641 13.7096 2.65898 12.4524 3.47385C12.2819 3.58441 12.1076 3.69732 11.9331 3.8076C10.626 2.53793 8.85955 1.81641 7.03124 1.81641C5.07152 1.81641 3.18568 2.64404 1.8573 4.08697L2.50388 4.68223C3.66632 3.41947 5.3165 2.69531 7.03124 2.69531C8.55052 2.69531 10.0208 3.26473 11.1447 4.27365C9.96082 4.91449 8.76632 5.28826 7.87107 5.28826V6.16717C9.04482 6.16717 10.6232 5.63455 12.0933 4.7424C12.3765 4.57055 12.6581 4.38797 12.9305 4.21137C14.1333 3.43172 15.2695 2.69531 16.6992 2.69531C18.5046 2.69531 20.2148 3.49301 21.3785 4.85379C19.212 5.80687 17.6953 7.97361 17.6953 10.4882C17.6953 11.5507 17.9695 12.5938 18.4895 13.5133V15.8463H20.3305C20.1952 16.2821 20.0743 16.7433 19.9675 17.2328L17.9194 18.4228L17.3054 22.0457L19.3526 23.2277C19.345 23.5525 19.3398 23.8846 19.3375 24.2255L20.2164 24.2315C20.2403 20.7351 20.5601 18.0471 21.192 16.0386C22.0173 16.4336 22.9252 16.6406 23.8477 16.6406C27.2401 16.6406 30.0001 13.8807 30.0001 10.4883C30.0001 7.09588 27.2401 4.33594 23.8477 4.33594ZM18.274 21.5902L18.7172 18.9758L19.7522 18.3744C19.5684 19.5125 19.4474 20.7891 19.3854 22.2318L18.274 21.5902ZM23.8477 15.7617C22.9019 15.7617 21.9741 15.5082 21.1645 15.0288L21.0609 14.9675H19.3684V13.2749L19.307 13.1713C18.8276 12.362 18.5742 11.4342 18.5742 10.4882C18.5742 7.58045 20.9399 5.21478 23.8477 5.21478C26.7554 5.21478 29.1211 7.58045 29.1211 10.4882C29.1211 13.396 26.7554 15.7617 23.8477 15.7617Z" fill="#000"/>
                                            <path d="M25.166 7.85156H22.5293V9.16992H21.2109V11.8066H22.5293V13.1251H25.166V11.8067H26.4844V9.16998H25.166V7.85156ZM25.6055 10.0488V10.9277H24.2871V12.2462H23.4082V10.9278H22.0898V10.0489H23.4082V8.73053H24.2871V10.0489H25.6055V10.0488Z" fill="#000"/>
                                            <path d="M16.6992 27.3046C15.2453 27.3046 14.0624 26.1218 14.0624 24.6679C14.0624 22.7264 13.8667 21.0916 13.4964 19.9406C13.0106 18.4306 12.3475 18.1136 11.8768 18.1136C11.4042 18.1136 10.7372 18.4327 10.2431 19.9528C9.86689 21.1104 9.66797 22.7409 9.66797 24.6679C9.66797 26.1218 8.48514 27.3046 7.03125 27.3046C5.57736 27.3046 4.39453 26.1218 4.39453 24.6679C4.39453 23.7035 4.36717 22.8204 4.31748 22.0079L6.17549 20.4153L6.23496 16.252L7.60822 14.3171L6.00264 11.5382V8.93626L1.07461 7.30513C1.25684 6.59884 1.56398 5.92847 1.98967 5.32114L1.26996 4.81665C0.43916 6.00194 0 7.39577 0 8.84761C0 10.6834 0.570762 11.8979 1.2317 13.3043C2.24924 15.4695 3.51563 18.1642 3.51563 24.6679C3.51563 26.6064 5.09273 28.1835 7.03125 28.1835C8.96977 28.1835 10.5469 26.6064 10.5469 24.6679C10.5469 20.3898 11.5359 18.9925 11.8768 18.9925C12.2256 18.9925 13.1835 20.3376 13.1835 24.6679C13.1835 26.6064 14.7606 28.1835 16.6992 28.1835C18.4348 28.1835 19.9307 26.8876 20.1787 25.1691L19.3088 25.0435C19.1228 26.3326 18.0009 27.3046 16.6992 27.3046ZM2.02711 12.9304C1.38557 11.5654 0.878906 10.4871 0.878906 8.84761C0.878906 8.62261 0.891563 8.39936 0.915469 8.17829L5.12373 9.57118V11.7739L6.56502 14.2685L5.36016 15.9663L5.30244 20.0063L4.23428 20.9218C3.85254 16.8157 2.85955 14.7018 2.02711 12.9304Z" fill="#000"/>
                                            <path d="M18.0176 4.49243H18.8965V5.37134H18.0176V4.49243Z" fill="#000"/>
                                            <path d="M16.2598 3.61353H17.1387V4.49243H16.2598V3.61353Z" fill="#000"/>
                                        </g>
                                        <defs>
                                            <clipPath id="clip0_9843_578">
                                                <rect width="30" height="30" fill="white"/>
                                            </clipPath>
                                        </defs>
                                    </svg>